<svg width="165" height="43" viewBox="0 0 165 43" fill="none" xmlns="http://www.w3.org/2000/svg"> <path d="M24.6061 12.1818C26.6646 12.1818 28.3334 10.5131 28.3334 8.45457C28.3334 6.39605 26.6646 4.72729 24.6061 4.72729C22.5476 4.72729 20.8788 6.39605 20.8788 8.45457C20.8788 10.5131 22.5476 12.1818 24.6061 12.1818Z" stroke="#717171" stroke-linecap="round" stroke-linejoin="round"></path> <path d="M20.4229 33.303H144.988L162.217 24.8585C162.217 24.8585 164.688 24.0611 163.371 22.8961C162.87 22.4537 161.49 22.1587 158.26 22.1212H6.01545C6.01545 22.1212 3.41045 22.1212 2.25372 22.4412C0.843065 22.8411 0.0601538 23.9186 3.03663 24.9985L20.4229 33.303Z" fill="#D0E1E9" stroke="#717171" stroke-linecap="round" stroke-linejoin="round"></path> <path d="M130.212 42L121.515 13.4242" stroke="#717171" stroke-linecap="round" stroke-linejoin="round"></path> <path d="M106.606 42L96.6667 13.4242" stroke="#717171" stroke-linecap="round" stroke-linejoin="round"></path> <path d="M107.64 22.1212L113.485 13.9936C113.485 13.9936 114.649 12.1806 113.666 10.8707C113.666 10.8707 112.947 9.69839 110.294 9.69839H99.4572C99.4572 9.69839 96.9934 9.59161 96.7312 11.2219C96.7312 11.2219 96.0712 13.6685 98.9735 13.6685H108.781L102.36 22.1188H107.64V22.1212Z" stroke="#717171" stroke-linecap="round" stroke-linejoin="round"></path> <path d="M132.488 22.1212L138.334 13.9936C138.334 13.9936 139.498 12.1806 138.514 10.8707C138.514 10.8707 137.796 9.69839 135.142 9.69839H124.306C124.306 9.69839 121.842 9.59161 121.58 11.2219C121.58 11.2219 120.92 13.6685 123.822 13.6685H133.63L127.208 22.1188H132.488V22.1212Z" stroke="#717171" stroke-linecap="round" stroke-linejoin="round"></path> <path d="M114.061 8.45455C116.119 8.45455 117.788 6.78579 117.788 4.72727C117.788 2.66876 116.119 1 114.061 1C112.002 1 110.333 2.66876 110.333 4.72727C110.333 6.78579 112.002 8.45455 114.061 8.45455Z" stroke="#717171" stroke-linecap="round" stroke-linejoin="round"></path> <path d="M139.53 8.45455C141.932 8.45455 143.879 6.78579 143.879 4.72727C143.879 2.66876 141.932 1 139.53 1C137.129 1 135.182 2.66876 135.182 4.72727C135.182 6.78579 137.129 8.45455 139.53 8.45455Z" stroke="#717171" stroke-linecap="round" stroke-linejoin="round"></path> <path d="M81.7576 42L71.8182 13.4242" stroke="#717171" stroke-linecap="round" stroke-linejoin="round"></path> <path d="M56.9091 42L46.9697 13.4242" stroke="#717171" stroke-linecap="round" stroke-linejoin="round"></path> <path d="M58.7266 22.1212L64.9895 13.9936C64.9895 13.9936 66.2368 12.1806 65.1832 10.8707C65.1832 10.8707 64.4131 9.69839 61.5699 9.69839H49.9595C49.9595 9.69839 47.3197 9.59161 47.0388 11.2219C47.0388 11.2219 46.3316 13.6685 49.4413 13.6685H59.9496L53.0692 22.1188H58.7266V22.1212Z" stroke="#717171" stroke-linecap="round" stroke-linejoin="round"></path> <path d="M82.787 22.1212L88.6369 13.9936C88.6369 13.9936 89.8006 12.1806 88.8177 10.8707C88.8177 10.8707 88.0992 9.69839 85.4465 9.69839H74.6076C74.6076 9.69839 72.1448 9.59161 71.8827 11.2219C71.8827 11.2219 71.2229 13.6685 74.1241 13.6685H83.9281L77.5088 22.1188H82.787V22.1212Z" stroke="#717171" stroke-linecap="round" stroke-linejoin="round"></path> <path d="M65.6061 8.45455C67.6646 8.45455 69.3333 6.78579 69.3333 4.72727C69.3333 2.66876 67.6646 1 65.6061 1C63.5475 1 61.8788 2.66876 61.8788 4.72727C61.8788 6.78579 63.5475 8.45455 65.6061 8.45455Z" stroke="#717171" stroke-linecap="round" stroke-linejoin="round"></path> <path d="M90.4546 8.45455C92.5131 8.45455 94.1818 6.78579 94.1818 4.72727C94.1818 2.66876 92.5131 1 90.4546 1C88.3961 1 86.7273 2.66876 86.7273 4.72727C86.7273 6.78579 88.3961 8.45455 90.4546 8.45455Z" stroke="#717171" stroke-linecap="round" stroke-linejoin="round"></path> <path d="M18.394 22.1212L19.8049 15.1575C19.8953 14.7093 20.2892 12.9356 23.0856 13.5535C23.0856 13.5535 24.4109 13.4251 25.4651 15.7342L28.3333 21.828L23.3636 22.0703L18.394 22.1212Z" stroke="#717171" stroke-linecap="round" stroke-linejoin="round"></path> </svg>